<svg width="215" height="50" viewBox="0 0 215 50" fill="none" xmlns="http://www.w3.org/2000/svg">
<path fill-rule="evenodd" clip-rule="evenodd" d="M3.29506 3.29506C-2.68221e-07 6.59009 0 11.8934 0 22.5C0 33.1065 -2.68221e-07 38.41 3.29506 41.7049C6.59009 45 11.8934 45 22.5 45C33.1065 45 38.41 45 41.7049 41.7049C45 38.41 45 33.1065 45 22.5C45 11.8934 45 6.59009 41.7049 3.29506C38.41 -2.68221e-07 33.1065 0 22.5 0C11.8934 0 6.59009 -2.68221e-07 3.29506 3.29506ZM35.0465 19.0802C35.6429 18.3643 35.5462 17.3003 34.8302 16.7036C34.1143 16.107 33.0502 16.2037 32.4535 16.9197L28.4105 21.7712C27.5764 22.7725 27.0639 23.3809 26.642 23.762C26.4463 23.9387 26.3302 24.0093 26.2744 24.0361C26.2631 24.0417 26.255 24.0448 26.2501 24.0469C26.2501 24.0469 26.2404 24.0431 26.2327 24.0395L26.2255 24.0361C26.17 24.0093 26.0539 23.9387 25.8581 23.762C25.436 23.3809 24.9237 22.7725 24.0894 21.7712L23.4315 20.9817C22.6924 20.0947 22.0261 19.2951 21.4038 18.733C20.7268 18.1217 19.8738 17.5771 18.7499 17.5771C17.6261 17.5771 16.7733 18.1217 16.0961 18.733C15.4738 19.2951 14.8075 20.0948 14.0685 20.9819L9.95362 25.9198C9.35699 26.6357 9.45371 27.6997 10.1697 28.2964C10.8857 28.8929 11.9497 28.7962 12.5464 28.0802L16.5894 23.2288C17.4237 22.2275 17.936 21.6191 18.358 21.238C18.5537 21.0613 18.6698 20.9907 18.7256 20.9639C18.7315 20.961 18.7407 20.957 18.7407 20.957L18.7499 20.9531C18.7551 20.9552 18.7632 20.9583 18.7745 20.9639C18.83 20.9907 18.9461 21.0613 19.1419 21.238C19.564 21.6191 20.0763 22.2275 20.9106 23.2288L21.5685 24.0183C22.3076 24.9053 22.9739 25.7049 23.5962 26.267C24.2732 26.8783 25.1262 27.423 26.2501 27.423C27.374 27.423 28.2267 26.8783 28.9039 26.267C29.5263 25.7049 30.1925 24.9053 30.9314 24.0183L35.0465 19.0802Z" fill="#FE7743"/>
<path d="M65.584 25.48C66.8853 25.7573 67.9307 26.408 68.72 27.432C69.5093 28.4347 69.904 29.5867 69.904 30.888C69.904 32.7653 69.2427 34.2587 67.92 35.368C66.6187 36.456 64.7947 37 62.448 37H51.984V14.536H62.096C64.3787 14.536 66.16 15.0587 67.44 16.104C68.7413 17.1493 69.392 18.568 69.392 20.36C69.392 21.6827 69.04 22.7813 68.336 23.656C67.6533 24.5307 66.736 25.1387 65.584 25.48ZM57.456 23.624H61.04C61.936 23.624 62.6187 23.432 63.088 23.048C63.5787 22.6427 63.824 22.056 63.824 21.288C63.824 20.52 63.5787 19.9333 63.088 19.528C62.6187 19.1227 61.936 18.92 61.04 18.92H57.456V23.624ZM61.488 32.584C62.4053 32.584 63.1093 32.3813 63.6 31.976C64.112 31.5493 64.368 30.9413 64.368 30.152C64.368 29.3627 64.1013 28.744 63.568 28.296C63.056 27.848 62.3413 27.624 61.424 27.624H57.456V32.584H61.488ZM75.8298 17.288C74.8698 17.288 74.0804 17.0107 73.4618 16.456C72.8644 15.88 72.5658 15.176 72.5658 14.344C72.5658 13.4907 72.8644 12.7867 73.4618 12.232C74.0804 11.656 74.8698 11.368 75.8298 11.368C76.7684 11.368 77.5364 11.656 78.1338 12.232C78.7524 12.7867 79.0618 13.4907 79.0618 14.344C79.0618 15.176 78.7524 15.88 78.1338 16.456C77.5364 17.0107 76.7684 17.288 75.8298 17.288ZM78.5498 19.144V37H73.0778V19.144H78.5498ZM87.6353 32.488H95.3793V37H81.5233V32.648L88.9473 23.656H81.5872V19.144H95.2193V23.496L87.6353 32.488Z" fill="#273F4F"/>
<path d="M118.896 28.04C118.896 26.2053 119.237 24.5947 119.92 23.208C120.624 21.8213 121.573 20.7547 122.768 20.008C123.963 19.2613 125.296 18.888 126.768 18.888C128.027 18.888 129.125 19.144 130.064 19.656C131.024 20.168 131.76 20.84 132.272 21.672V19.144H137.744V37H132.272V34.472C131.739 35.304 130.992 35.976 130.032 36.488C129.093 37 127.995 37.256 126.736 37.256C125.285 37.256 123.963 36.8827 122.768 36.136C121.573 35.368 120.624 34.2907 119.92 32.904C119.237 31.496 118.896 29.8747 118.896 28.04ZM132.272 28.072C132.272 26.7067 131.888 25.6293 131.12 24.84C130.373 24.0507 129.456 23.656 128.368 23.656C127.28 23.656 126.352 24.0507 125.584 24.84C124.837 25.608 124.464 26.6747 124.464 28.04C124.464 29.4053 124.837 30.4933 125.584 31.304C126.352 32.0933 127.28 32.488 128.368 32.488C129.456 32.488 130.373 32.0933 131.12 31.304C131.888 30.5147 132.272 29.4373 132.272 28.072ZM152.583 18.952C154.673 18.952 156.337 19.6347 157.575 21C158.833 22.344 159.463 24.2 159.463 26.568V37H154.023V27.304C154.023 26.1093 153.713 25.1813 153.095 24.52C152.476 23.8587 151.644 23.528 150.599 23.528C149.553 23.528 148.721 23.8587 148.103 24.52C147.484 25.1813 147.175 26.1093 147.175 27.304V37H141.703V19.144H147.175V21.512C147.729 20.7227 148.476 20.104 149.415 19.656C150.353 19.1867 151.409 18.952 152.583 18.952ZM174.177 37L168.737 29.512V37H163.265V13.32H168.737V26.408L174.145 19.144H180.897L173.473 28.104L180.961 37H174.177ZM199.878 27.784C199.878 28.296 199.847 28.8293 199.783 29.384H187.399C187.484 30.4933 187.836 31.3467 188.455 31.944C189.095 32.52 189.873 32.808 190.791 32.808C192.156 32.808 193.105 32.232 193.639 31.08H199.463C199.164 32.2533 198.62 33.3093 197.831 34.248C197.063 35.1867 196.092 35.9227 194.919 36.456C193.745 36.9893 192.433 37.256 190.983 37.256C189.233 37.256 187.676 36.8827 186.311 36.136C184.945 35.3893 183.879 34.3227 183.111 32.936C182.343 31.5493 181.959 29.928 181.959 28.072C181.959 26.216 182.332 24.5947 183.079 23.208C183.847 21.8213 184.913 20.7547 186.279 20.008C187.644 19.2613 189.212 18.888 190.983 18.888C192.711 18.888 194.247 19.2507 195.591 19.976C196.935 20.7013 197.98 21.736 198.727 23.08C199.495 24.424 199.878 25.992 199.878 27.784ZM194.279 26.344C194.279 25.4053 193.959 24.6587 193.319 24.104C192.679 23.5493 191.879 23.272 190.919 23.272C190.001 23.272 189.223 23.5387 188.583 24.072C187.964 24.6053 187.58 25.3627 187.431 26.344H194.279ZM208.237 22.12C208.877 21.1387 209.677 20.3707 210.637 19.816C211.597 19.24 212.664 18.952 213.837 18.952V24.744H212.333C210.968 24.744 209.944 25.0427 209.261 25.64C208.579 26.216 208.237 27.24 208.237 28.712V37H202.765V19.144H208.237V22.12Z" fill="#273F4F"/>
<path d="M110.44 37L105.768 28.52H104.456V37H98.984V14.536H108.168C109.939 14.536 111.443 14.8453 112.68 15.464C113.939 16.0827 114.877 16.936 115.496 18.024C116.115 19.0907 116.424 20.2853 116.424 21.608C116.424 23.1013 115.997 24.4347 115.144 25.608C114.312 26.7813 113.075 27.6133 111.432 28.104L116.616 37H110.44ZM104.456 24.648H107.848C108.851 24.648 109.597 24.4027 110.088 23.912C110.6 23.4213 110.856 22.728 110.856 21.832C110.856 20.9787 110.6 20.3067 110.088 19.816C109.597 19.3253 108.851 19.08 107.848 19.08H104.456V24.648Z" fill="#FE7743"/>
</svg>
