<svg width="186" height="50" viewBox="0 0 186 50" fill="none" xmlns="http://www.w3.org/2000/svg">
<path fill-rule="evenodd" clip-rule="evenodd" d="M3.29506 3.29506C-2.68221e-07 6.59009 0 11.8934 0 22.5C0 33.1065 -2.68221e-07 38.41 3.29506 41.7049C6.59009 45 11.8934 45 22.5 45C33.1065 45 38.41 45 41.7049 41.7049C45 38.41 45 33.1065 45 22.5C45 11.8934 45 6.59009 41.7049 3.29506C38.41 -2.68221e-07 33.1065 0 22.5 0C11.8934 0 6.59009 -2.68221e-07 3.29506 3.29506ZM35.0465 19.0802C35.6429 18.3643 35.5462 17.3003 34.8302 16.7036C34.1143 16.107 33.0502 16.2037 32.4535 16.9197L28.4105 21.7712C27.5764 22.7725 27.0639 23.3809 26.642 23.762C26.4463 23.9386 26.3302 24.0093 26.2744 24.0361C26.2631 24.0417 26.255 24.0449 26.2501 24.0469C26.2501 24.0469 26.2404 24.0431 26.2328 24.0395L26.2255 24.0361C26.17 24.0093 26.0539 23.9386 25.8581 23.762C25.436 23.3809 24.9237 22.7725 24.0894 21.7712L23.4315 20.9817C22.6924 20.0948 22.0262 19.2951 21.4038 18.733C20.7268 18.1217 19.8738 17.5771 18.7499 17.5771C17.6261 17.5771 16.7733 18.1217 16.0961 18.733C15.4738 19.2951 14.8075 20.0948 14.0685 20.9819L9.95362 25.9198C9.35699 26.6357 9.45371 27.6997 10.1697 28.2964C10.8857 28.8929 11.9497 28.7962 12.5464 28.0802L16.5894 23.2288C17.4237 22.2275 17.936 21.6191 18.358 21.238C18.5537 21.0614 18.6698 20.9907 18.7256 20.9639C18.7315 20.961 18.7407 20.957 18.7407 20.957L18.7499 20.9531C18.7551 20.9551 18.7632 20.9583 18.7745 20.9639C18.83 20.9907 18.9461 21.0614 19.1419 21.238C19.564 21.6191 20.0763 22.2275 20.9106 23.2288L21.5685 24.0183C22.3076 24.9052 22.9738 25.7049 23.5962 26.267C24.2732 26.8783 25.1262 27.423 26.2501 27.423C27.374 27.423 28.2267 26.8783 28.9039 26.267C29.5263 25.7049 30.1925 24.9052 30.9314 24.0183L35.0465 19.0802Z" fill="#FE7743"/>
<path d="M65.584 25.48C66.8853 25.7573 67.9307 26.408 68.72 27.432C69.5093 28.4347 69.904 29.5867 69.904 30.888C69.904 32.7653 69.2427 34.2587 67.92 35.368C66.6187 36.456 64.7947 37 62.448 37H51.984V14.536H62.096C64.3787 14.536 66.16 15.0587 67.44 16.104C68.7413 17.1493 69.392 18.568 69.392 20.36C69.392 21.6827 69.04 22.7813 68.336 23.656C67.6533 24.5307 66.736 25.1387 65.584 25.48ZM57.456 23.624H61.04C61.936 23.624 62.6187 23.432 63.088 23.048C63.5787 22.6427 63.824 22.056 63.824 21.288C63.824 20.52 63.5787 19.9333 63.088 19.528C62.6187 19.1227 61.936 18.92 61.04 18.92H57.456V23.624ZM61.488 32.584C62.4053 32.584 63.1093 32.3813 63.6 31.976C64.112 31.5493 64.368 30.9413 64.368 30.152C64.368 29.3627 64.1013 28.744 63.568 28.296C63.056 27.848 62.3413 27.624 61.424 27.624H57.456V32.584H61.488ZM75.8298 17.288C74.8698 17.288 74.0804 17.0107 73.4618 16.456C72.8644 15.88 72.5658 15.176 72.5658 14.344C72.5658 13.4907 72.8644 12.7867 73.4618 12.232C74.0804 11.656 74.8698 11.368 75.8298 11.368C76.7684 11.368 77.5364 11.656 78.1338 12.232C78.7524 12.7867 79.0618 13.4907 79.0618 14.344C79.0618 15.176 78.7524 15.88 78.1338 16.456C77.5364 17.0107 76.7684 17.288 75.8298 17.288ZM78.5498 19.144V37H73.0778V19.144H78.5498ZM87.6353 32.488H95.3793V37H81.5233V32.648L88.9473 23.656H81.5872V19.144H95.2193V23.496L87.6353 32.488Z" fill="#273F4F"/>
<path d="M122.456 13.32V37H116.984V13.32H122.456ZM143.253 27.784C143.253 28.296 143.222 28.8293 143.158 29.384H130.774C130.859 30.4933 131.211 31.3467 131.83 31.944C132.47 32.52 133.248 32.808 134.166 32.808C135.531 32.808 136.48 32.232 137.014 31.08H142.838C142.539 32.2533 141.995 33.3093 141.206 34.248C140.438 35.1867 139.467 35.9227 138.294 36.456C137.12 36.9893 135.808 37.256 134.358 37.256C132.608 37.256 131.051 36.8827 129.686 36.136C128.32 35.3893 127.254 34.3227 126.486 32.936C125.718 31.5493 125.334 29.928 125.334 28.072C125.334 26.216 125.707 24.5947 126.454 23.208C127.222 21.8213 128.288 20.7547 129.654 20.008C131.019 19.2613 132.587 18.888 134.358 18.888C136.086 18.888 137.622 19.2507 138.966 19.976C140.31 20.7013 141.355 21.736 142.102 23.08C142.87 24.424 143.253 25.992 143.253 27.784ZM137.654 26.344C137.654 25.4053 137.334 24.6587 136.694 24.104C136.054 23.5493 135.254 23.272 134.294 23.272C133.376 23.272 132.598 23.5387 131.958 24.072C131.339 24.6053 130.955 25.3627 130.806 26.344H137.654ZM154.172 31.88L158.044 19.144H163.868L157.532 37H150.78L144.444 19.144H150.3L154.172 31.88ZM177.052 18.952C179.142 18.952 180.806 19.6347 182.044 21C183.302 22.344 183.932 24.2 183.932 26.568V37H178.492V27.304C178.492 26.1093 178.182 25.1813 177.564 24.52C176.945 23.8587 176.113 23.528 175.068 23.528C174.022 23.528 173.19 23.8587 172.572 24.52C171.953 25.1813 171.644 26.1093 171.644 27.304V37H166.172V19.144H171.644V21.512C172.198 20.7227 172.945 20.104 173.884 19.656C174.822 19.1867 175.878 18.952 177.052 18.952Z" fill="#273F4F"/>
<path d="M104.456 18.92V23.464H111.784V27.688H104.456V32.616H112.744V37H98.984V14.536H112.744V18.92H104.456Z" fill="#FE7743"/>
</svg>
